<svg xmlns="http://www.w3.org/2000/svg" viewBox="0 0 88.43 88.43"><defs><style>.cls-1{fill:#fff;}</style></defs><title>arrowup.white</title><g id="Layer_2" data-name="Layer 2"><g id="Layer_1-2" data-name="Layer 1"><path class="cls-1" d="M0,44.24A44.22,44.22,0,1,1,44.24,88.43,44.39,44.39,0,0,1,0,44.24Zm77.08,0A32.85,32.85,0,1,0,44.24,77.08,32.84,32.84,0,0,0,77.08,44.24Zm-28.88-20L61.81,38.48a4.28,4.28,0,0,1,1.29,3.17,4,4,0,0,1-4.17,4,4,4,0,0,1-3.09-1.38l-4.26-4.63-3-4.18.5,8.06v17.9A4.58,4.58,0,0,1,44.24,66a4.55,4.55,0,0,1-4.84-4.55V43.53l.46-8.06-2.93,4.05-4.29,4.76a4,4,0,0,1-3.09,1.38,3.93,3.93,0,0,1-4.18-4,4.21,4.21,0,0,1,1.26-3.17L40.27,24.25a5.14,5.14,0,0,1,4-1.8A5.2,5.2,0,0,1,48.2,24.25Z"/></g></g></svg>