<svg xmlns="http://www.w3.org/2000/svg" viewBox="0 0 88.43 88.43"><defs><style>.cls-1{fill:#fff;}</style></defs><title>arrowup.fill.white</title><g id="Layer_2" data-name="Layer 2"><g id="Layer_1-2" data-name="Layer 1"><path class="cls-1" d="M0,44.24A44.22,44.22,0,1,1,44.24,88.43,44.39,44.39,0,0,1,0,44.24ZM40,22.83,25.46,38.06a4.41,4.41,0,0,0-1.38,3.38,4.2,4.2,0,0,0,4.42,4.3,4.38,4.38,0,0,0,3.3-1.46l4.59-5.09,3.21-4.34-.54,8.64V62.68a4.9,4.9,0,0,0,5.18,4.84,4.88,4.88,0,0,0,5.13-4.84V43.49l-.5-8.64,3.21,4.42,4.55,5a4.42,4.42,0,0,0,3.3,1.46,4.21,4.21,0,0,0,4.46-4.3A4.55,4.55,0,0,0,63,38.06L48.45,22.83A5.52,5.52,0,0,0,44.24,21,5.37,5.37,0,0,0,40,22.83Z"/></g></g></svg>