<svg xmlns="http://www.w3.org/2000/svg" viewBox="0 0 89.99 76.42"><defs><style>.cls-1{fill:#231f20;}</style></defs><title>book.fill.black</title><g id="Layer_2" data-name="Layer 2"><g id="Layer_1-2" data-name="Layer 1"><path class="cls-1" d="M9.7,74.76a7.29,7.29,0,0,1-4.6,1.66C2.34,76.42,0,74.76,0,70.68V11.23C2.59,6.21,11.44,0,22.67,0,30.79,0,38.87,3.91,42,9V75.74c-.51-.21-2.34-1.32-3.1-1.74a25.28,25.28,0,0,0-13.78-3.79C17.9,70.21,12.12,72.76,9.7,74.76ZM51.16,74c-.77.46-2.59,1.61-3.11,1.82V9C51.16,3.91,59.2,0,67.36,0,78.55,0,87.39,6.21,90,11.23V70.68c0,4.08-2.34,5.74-5.11,5.74a7.08,7.08,0,0,1-4.55-1.66c-2.46-2-8.25-4.55-15.39-4.55A25.28,25.28,0,0,0,51.16,74Z"/></g></g></svg>