<svg xmlns="http://www.w3.org/2000/svg" viewBox="0 0 91.18 77.95"><defs><style>.cls-1{fill:#67b2a0;}</style></defs><title>book.green</title><g id="Layer_2" data-name="Layer 2"><g id="Layer_1-2" data-name="Layer 1"><path class="cls-1" d="M66,0C78.33,0,88.37,6.46,91.18,12.63V71.87c0,4.42-2.89,6.08-6,6.08a7.65,7.65,0,0,1-5.06-1.74c-2.38-2-6.89-4.55-14.12-4.55A25.09,25.09,0,0,0,51.37,76a9.36,9.36,0,0,1-5.78,2,8.86,8.86,0,0,1-5.79-2c-2.16-1.74-7.31-4.29-14.58-4.29s-11.7,2.59-14.08,4.55A7.87,7.87,0,0,1,6,78c-3.15,0-6-1.66-6-6.08V12.63C2.81,6.46,12.84,0,25.22,0c9.23,0,16.71,3.74,20.37,7.87C49.25,3.74,56.77,0,66,0Zm-56,66.68c3.91-2.93,9.44-4.29,15.31-4.29s11.48,1.36,15.44,4.16V15.91c-1-2.56-6.89-6.77-15.44-6.77S11.1,13.31,9.91,15.91ZM66,9.14c-8.55,0-14.42,4.21-15.4,6.77V66.55c3.92-2.8,9.53-4.16,15.4-4.16s11.4,1.36,15.31,4.29V15.91C80.12,13.31,74.51,9.14,66,9.14Z"/></g></g></svg>