<svg xmlns="http://www.w3.org/2000/svg" viewBox="0 0 87.94 80.42"><defs><style>.cls-1{fill:#fff;}</style></defs><title>calendar.white</title><g id="Layer_2" data-name="Layer 2"><g id="Layer_1-2" data-name="Layer 1"><path class="cls-1" d="M0,66V14.37C0,5,5.06,0,14.5,0H73.44c9.49,0,14.5,5,14.5,14.37V66c0,9.36-5,14.42-14.5,14.42H14.5C5.06,80.42,0,75.4,0,66Zm73,4.68c3.36,0,5.19-1.7,5.19-5.23V27c0-3.57-1.83-5.23-5.19-5.23H14.93c-3.4,0-5.19,1.66-5.19,5.23V65.45c0,3.53,1.79,5.23,5.19,5.23ZM20.12,47.46V45c0-1.53.51-2,2-2h2.51c1.53,0,2.08.47,2.08,2v2.51c0,1.53-.55,2-2.08,2H22.16C20.63,49.46,20.12,49,20.12,47.46Zm0,13.48V58.47c0-1.53.51-2,2-2h2.51c1.53,0,2.08.51,2.08,2v2.47c0,1.53-.55,2-2.08,2H22.16C20.63,63,20.12,62.47,20.12,60.94ZM33.81,34V31.47c0-1.53.51-2,2.08-2h2.47c1.57,0,2.08.47,2.08,2V34c0,1.53-.51,2-2.08,2H35.89C34.32,36,33.81,35.51,33.81,34Zm0,13.48V45c0-1.53.51-2,2.08-2h2.47c1.57,0,2.08.47,2.08,2v2.51c0,1.53-.51,2-2.08,2H35.89C34.32,49.46,33.81,49,33.81,47.46Zm0,13.48V58.47c0-1.53.51-2,2.08-2h2.47c1.57,0,2.08.51,2.08,2v2.47c0,1.53-.51,2-2.08,2H35.89C34.32,63,33.81,62.47,33.81,60.94ZM47.5,34V31.47c0-1.53.55-2,2.09-2h2.5c1.54,0,2,.47,2,2V34c0,1.53-.51,2-2,2h-2.5C48.05,36,47.5,35.51,47.5,34Zm0,13.48V45c0-1.53.55-2,2.09-2h2.5c1.54,0,2,.47,2,2v2.51c0,1.53-.51,2-2,2h-2.5C48.05,49.46,47.5,49,47.5,47.46Zm0,13.48V58.47c0-1.53.55-2,2.09-2h2.5c1.54,0,2,.51,2,2v2.47c0,1.53-.51,2-2,2h-2.5C48.05,63,47.5,62.47,47.5,60.94ZM61.24,34V31.47c0-1.53.51-2,2-2h2.51c1.53,0,2,.47,2,2V34c0,1.53-.51,2-2,2H63.28C61.75,36,61.24,35.51,61.24,34Zm0,13.48V45c0-1.53.51-2,2-2h2.51c1.53,0,2,.47,2,2v2.51c0,1.53-.51,2-2,2H63.28C61.75,49.46,61.24,49,61.24,47.46Z"/></g></g></svg>