<svg xmlns="http://www.w3.org/2000/svg" viewBox="0 0 49.52 84.63"><defs><style>.cls-1{fill:#67b2a0;}</style></defs><title>chevron.right.green</title><g id="Layer_2" data-name="Layer 2"><g id="Layer_1-2" data-name="Layer 1"><path class="cls-1" d="M0,78.1a6.77,6.77,0,0,1,2.07-4.79L34,42.34l-31.91-31A6.74,6.74,0,0,1,0,6.52,6.52,6.52,0,0,1,6.57,0a6.34,6.34,0,0,1,4.55,1.88l36,35.2a6.88,6.88,0,0,1,2.4,5.26,7.3,7.3,0,0,1-2.4,5.25l-36,35.16a6.26,6.26,0,0,1-4.55,1.88A6.52,6.52,0,0,1,0,78.1Z"/></g></g></svg>