<svg width="22" height="23" viewBox="0 0 22 23" fill="none" xmlns="http://www.w3.org/2000/svg">
<path d="M3.06066 1.49323C2.47487 0.907447 1.52513 0.907447 0.93934 1.49323C0.353553 2.07902 0.353553 3.02877 0.93934 3.61455L3.06066 1.49323ZM18.9393 21.6146C19.5251 22.2003 20.4749 22.2003 21.0607 21.6146C21.6464 21.0288 21.6464 20.079 21.0607 19.4932L18.9393 21.6146ZM0.93934 3.61455L18.9393 21.6146L21.0607 19.4932L3.06066 1.49323L0.93934 3.61455Z" fill="#68B2A0"/>
<path d="M1.46044 19.2499C0.893235 19.8537 0.9229 20.803 1.5267 21.3702C2.1305 21.9374 3.07978 21.9077 3.64698 21.3039L1.46044 19.2499ZM20.8162 3.02701C21.3834 2.42321 21.3538 1.47393 20.75 0.906722C20.1462 0.339519 19.1969 0.369184 18.6297 0.97298L20.8162 3.02701ZM3.64698 21.3039L20.8162 3.02701L18.6297 0.97298L1.46044 19.2499L3.64698 21.3039Z" fill="#68B2A0"/>
</svg>
