<svg width="22" height="23" viewBox="0 0 22 23" fill="none" xmlns="http://www.w3.org/2000/svg">
<path d="M3.06066 1.49317C2.47487 0.907386 1.52513 0.907386 0.93934 1.49317C0.353553 2.07896 0.353553 3.02871 0.93934 3.61449L3.06066 1.49317ZM18.9393 21.6145C19.5251 22.2003 20.4749 22.2003 21.0607 21.6145C21.6464 21.0287 21.6464 20.079 21.0607 19.4932L18.9393 21.6145ZM0.93934 3.61449L18.9393 21.6145L21.0607 19.4932L3.06066 1.49317L0.93934 3.61449Z" fill="white"/>
<path d="M1.46044 19.25C0.893235 19.8538 0.9229 20.803 1.5267 21.3702C2.1305 21.9375 3.07978 21.9078 3.64698 21.304L1.46044 19.25ZM20.8162 3.02707C21.3834 2.42327 21.3538 1.47399 20.75 0.906783C20.1462 0.33958 19.1969 0.369245 18.6297 0.973041L20.8162 3.02707ZM3.64698 21.304L20.8162 3.02707L18.6297 0.973041L1.46044 19.25L3.64698 21.304Z" fill="white"/>
</svg>
