<svg xmlns="http://www.w3.org/2000/svg" viewBox="0 0 74.25 92.88"><defs><style>.cls-1{fill:#fff;}</style></defs><title>doc.white</title><g id="Layer_2" data-name="Layer 2"><g id="Layer_1-2" data-name="Layer 1"><path class="cls-1" d="M0,78.38V14.54C0,5.1,5,0,14.42,0H59.83c9.4,0,14.42,5.1,14.42,14.54V78.38c0,9.48-5,14.5-14.42,14.5H14.42C5,92.88,0,87.86,0,78.38Zm58.81,4.76c3.83,0,5.7-2,5.7-5.66V15.39c0-3.65-1.87-5.65-5.7-5.65H15.44c-3.87,0-5.7,2-5.7,5.65V77.48c0,3.7,1.83,5.66,5.7,5.66Zm-39.5-59a2.7,2.7,0,0,1,2.8-2.72H52.18a2.69,2.69,0,0,1,2.76,2.72A2.74,2.74,0,0,1,52.18,27H22.11A2.75,2.75,0,0,1,19.31,24.15Zm0,14.25a2.7,2.7,0,0,1,2.8-2.72H52.18a2.69,2.69,0,0,1,2.76,2.72,2.75,2.75,0,0,1-2.76,2.81H22.11A2.75,2.75,0,0,1,19.31,38.4Zm0,14.33a2.75,2.75,0,0,1,2.8-2.8H37a2.74,2.74,0,0,1,2.76,2.8A2.69,2.69,0,0,1,37,55.45H22.11A2.7,2.7,0,0,1,19.31,52.73Z"/></g></g></svg>