<svg xmlns="http://www.w3.org/2000/svg" viewBox="0 0 90.1 74.99"><defs><style>.cls-1{fill:#f06666;}</style></defs><title>forum.red</title><g id="Layer_2" data-name="Layer 2"><g id="Layer_1-2" data-name="Layer 1"><path class="cls-1" d="M0,48.41a4.69,4.69,0,0,1,4.72-4.72H85.39a4.74,4.74,0,0,1,0,9.48H4.72A4.72,4.72,0,0,1,0,48.41ZM0,70.28a4.69,4.69,0,0,1,4.72-4.72H85.39a4.72,4.72,0,0,1,0,9.43H4.72A4.68,4.68,0,0,1,0,70.28ZM.08,18.9C.08,7.89,8.47,0,18,0,20.28,0,22,1.34,22,3.38A3.29,3.29,0,0,1,19,6.64C13.15,7,9,10.39,7.68,15.4a7.5,7.5,0,0,1,6.05-2.55c5.18,0,9.1,3.93,9.1,9.64,0,5.93-4.76,10.14-10.69,10.14C5.05,32.63.08,27.21.08,18.9Zm27.13,0c0-11,8.43-18.9,17.9-18.9,2.34,0,4.09,1.34,4.09,3.38a3.32,3.32,0,0,1-3.08,3.26c-5.85.37-10,3.75-11.31,8.76a7.64,7.64,0,0,1,6.09-2.55C46,12.85,50,16.78,50,22.49c0,5.93-4.75,10.14-10.68,10.14C32.22,32.63,27.21,27.21,27.21,18.9ZM57.42,4.72A4.69,4.69,0,0,1,62.14,0H85.39A4.69,4.69,0,0,1,90.1,4.72a4.69,4.69,0,0,1-4.71,4.71H62.14A4.69,4.69,0,0,1,57.42,4.72Zm0,21.86a4.68,4.68,0,0,1,4.72-4.71H85.39a4.72,4.72,0,0,1,0,9.43H62.14A4.69,4.69,0,0,1,57.42,26.58Z"/></g></g></svg>