<svg xmlns="http://www.w3.org/2000/svg" viewBox="0 0 98.41 96.99"><defs><style>.cls-1{fill:#67b2a0;}</style></defs><title>gear.green</title><g id="Layer_2" data-name="Layer 2"><g id="Layer_1-2" data-name="Layer 1"><path class="cls-1" d="M46.23,90.88l-2.3,4.42A3.11,3.11,0,0,1,40.66,97a3.18,3.18,0,0,1-2.56-2.68l-.68-4.93a44,44,0,0,1-5.53-2l-3.65,3.31a3.06,3.06,0,0,1-3.66.43,3.13,3.13,0,0,1-1.45-3.36l1.07-4.89a42.5,42.5,0,0,1-4.6-3.74L15.1,81a3.13,3.13,0,0,1-3.87-4.51l2.63-4.25A40.19,40.19,0,0,1,11,67.1L6,67.36A3,3,0,0,1,3,65.28,3,3,0,0,1,4,61.79l3.87-3.06a32.94,32.94,0,0,1-1-5.79L2.17,51.41A3,3,0,0,1,0,48.48a3.05,3.05,0,0,1,2.17-3L6.89,44a32.19,32.19,0,0,1,1-5.78L4,35.12a3,3,0,0,1-1-3.44,2.93,2.93,0,0,1,3-2l5,.17a48.44,48.44,0,0,1,2.89-5.1l-2.63-4.26a2.94,2.94,0,0,1,.25-3.53A3,3,0,0,1,15.1,16l4.55,1.83a40.38,40.38,0,0,1,4.55-3.7L23.13,9.27a3.1,3.1,0,0,1,5.15-2.94l3.61,3.24a49.06,49.06,0,0,1,5.53-2l.68-4.89A3.14,3.14,0,0,1,40.61,0a3.07,3.07,0,0,1,3.32,1.62l2.3,4.42c1-.09,2-.13,3-.13s1.92,0,2.94.13l2.34-4.47A3,3,0,0,1,57.71,0a3.12,3.12,0,0,1,2.55,2.68l.68,4.89a49.06,49.06,0,0,1,5.53,2l3.66-3.24a2.88,2.88,0,0,1,3.65-.42,3,3,0,0,1,1.45,3.36l-1,4.85a41.82,41.82,0,0,1,4.51,3.7L83.27,16a3.14,3.14,0,0,1,3.87,4.51L84.5,24.71a40.94,40.94,0,0,1,2.89,5.1l5-.17a3,3,0,0,1,3.06,2,3,3,0,0,1-1.11,3.44l-3.87,3.07A37.55,37.55,0,0,1,91.52,44l4.67,1.49a3.1,3.1,0,0,1,2.22,3,3,3,0,0,1-2.22,2.93L91.52,52.9a36.82,36.82,0,0,1-1.07,5.83l3.92,3.06a3.21,3.21,0,0,1,1.06,3.53,3,3,0,0,1-3.06,2l-5-.26a34.9,34.9,0,0,1-2.89,5.11l2.64,4.25A2.88,2.88,0,0,1,86.88,80a3,3,0,0,1-3.61,1L78.76,79.1a43,43,0,0,1-4.55,3.74l1,4.85a3,3,0,0,1-1.4,3.36,3,3,0,0,1-3.7-.43l-3.66-3.27a44,44,0,0,1-5.53,2l-.68,4.93a3.08,3.08,0,0,1-2.51,2.64,3,3,0,0,1-3.27-1.66l-2.34-4.38c-1,.08-2,.17-2.94.17S47.25,91,46.23,90.88ZM28.37,75.14,39.68,56.56a11.71,11.71,0,0,1-3.23-8,12.44,12.44,0,0,1,3.23-8.21l-11-18.84a33.93,33.93,0,0,0-12.8,26.92A33.87,33.87,0,0,0,28.37,75.14Zm54-22.83H60.64c-2.17,5.74-6.63,8.8-11.82,8.8a10.23,10.23,0,0,1-2.68-.34L34.87,79.27A33.25,33.25,0,0,0,49.2,82.41C66.72,82.41,80.5,69.36,82.33,52.31Zm0-7.7C80.5,27.6,66.68,14.54,49.2,14.54a33.07,33.07,0,0,0-14,3l11,18.8A9.83,9.83,0,0,1,48.82,36c5.15,0,9.65,3,11.82,8.59ZM48.91,53.67A5.12,5.12,0,0,0,54,48.56a5.06,5.06,0,0,0-5.1-5.06,5.14,5.14,0,0,0-5.15,5.06A5.21,5.21,0,0,0,48.91,53.67Z"/></g></g></svg>