<svg xmlns="http://www.w3.org/2000/svg" viewBox="0 0 106.23 93.73"><defs><style>.cls-1{fill:#f06666;}</style></defs><title>house.fill.red</title><g id="Layer_2" data-name="Layer 2"><g id="Layer_1-2" data-name="Layer 1"><path class="cls-1" d="M1.83,43.72,46.4,3.06A9.64,9.64,0,0,1,53.12.3a9.82,9.82,0,0,1,6.76,2.76l14.33,13.1v-13A3,3,0,0,1,77.44,0h7.91a3,3,0,0,1,3.19,3.15V29.22l15.86,14.5a4.84,4.84,0,0,1,1.83,4,4.63,4.63,0,0,1-4.93,4.59,5.78,5.78,0,0,1-4-1.74L54.35,11.23a1.64,1.64,0,0,0-1.23-.51,1.78,1.78,0,0,0-1.2.51l-43,39.29A5.65,5.65,0,0,1,5,52.26a4.67,4.67,0,0,1-5-4.59A4.87,4.87,0,0,1,1.83,43.72ZM14.71,53,51.88,19.09a1.73,1.73,0,0,1,1.19-.55,1.67,1.67,0,0,1,1.19.51l37.3,33.81v30.7c0,6.3-4.08,10.17-10.67,10.17H64.3V62.68A3.09,3.09,0,0,0,61,59.37H45.33A3.14,3.14,0,0,0,42,62.68V93.73H25.35c-6.55,0-10.64-3.87-10.64-10.17Z"/></g></g></svg>