<svg xmlns="http://www.w3.org/2000/svg" viewBox="0 0 106.23 93.73"><defs><style>.cls-1{fill:#231f20;}</style></defs><title>house.black</title><g id="Layer_2" data-name="Layer 2"><g id="Layer_1-2" data-name="Layer 1"><path class="cls-1" d="M0,47.67a4.84,4.84,0,0,1,1.83-4L46.4,3.06a9.49,9.49,0,0,1,13.48,0L74.17,16.12v-13A3,3,0,0,1,77.4,0h7.91A3,3,0,0,1,88.5,3.15v26l15.9,14.55a4.87,4.87,0,0,1,1.83,4,4.63,4.63,0,0,1-4.93,4.59,5.78,5.78,0,0,1-4-1.74l-5.66-5.19V83.18c0,6.59-4,10.55-10.84,10.55H25.47c-6.84,0-10.84-4-10.84-10.55V45.33l-5.7,5.19A5.66,5.66,0,0,1,5,52.26,4.67,4.67,0,0,1,0,47.67ZM65.66,84H77.87c2.59,0,4-1.45,4-4.08V36.44L54.35,11.23a1.58,1.58,0,0,0-1.23-.51,1.79,1.79,0,0,0-1.2.51L24.37,36.44V79.91c0,2.63,1.4,4.08,4,4.08H40.57V56.05a3.11,3.11,0,0,1,3.36-3.28H62.34a3.08,3.08,0,0,1,3.32,3.28Z"/></g></g></svg>