<svg xmlns="http://www.w3.org/2000/svg" viewBox="0 0 91.32 94.05"><defs><style>.cls-1{fill:#231f20;}</style></defs><title>pen.circle.black</title><g id="Layer_2" data-name="Layer 2"><g id="Layer_1-2" data-name="Layer 1"><path class="cls-1" d="M10.87,10.56C24.44-3,47.11-3,64.33,7.62L57.87,14C45,7.07,27.63,6.26,17.08,16.77,3.69,30.16,7.05,55.25,23,71.2c9.87,10,22.5,13.1,28.67,14.25,2.8.68,4.21,2.34,4.08,4.72-.09,2.72-2.3,4.29-5.61,3.78a59.12,59.12,0,0,1-33.3-16.54C-3.54,57-5.29,26.76,10.87,10.56ZM31.75,60.1a1.73,1.73,0,0,1-2.21-2.25l3.83-9.53L71.9,9.79,80,17.87,41.45,56.4Zm11.19.51c9.65,9.36,25.09,13.52,34.7,4,7.74-7.74,6.29-21.18-1.79-33.09l6.34-6.29c11.57,16.28,12.16,35,1.66,45.58-12.93,12.89-37,7.79-50.35-6.46Zm32.19-54L79,2.73c2-1.95,5-2.21,6.81-.51l1.4,1.36c2,2,1.79,5.06-.21,7.19l-3.83,3.91Z"/></g></g></svg>