<svg xmlns="http://www.w3.org/2000/svg" viewBox="0 0 85.63 87"><defs><style>.cls-1{fill:#f06666;}</style></defs><title>pen.red</title><g id="Layer_2" data-name="Layer 2"><g id="Layer_1-2" data-name="Layer 1"><path class="cls-1" d="M0,72.58V24C0,14.66,5.06,9.65,14.5,9.65H57.75L48,19.38H15.39c-3.69,0-5.65,1.83-5.65,5.7V71.52c0,3.87,2,5.74,5.65,5.74H62.81c2.81,0,4.81-1.87,4.81-5.74v-35l9.74-9.74v45.8C77.36,82,72.29,87,63.71,87H14.5C5.06,87,0,82,0,72.58Zm31.26-20.2,3.82-8.76L70.76,7.94,77.87,15,42.14,50.68l-9,3.7A1.54,1.54,0,0,1,31.26,52.38ZM73.78,4.84l3.45-3.36c1.74-1.7,4.42-2,6-.47l1.19,1.24a4.29,4.29,0,0,1-.13,6.2l-3.36,3.49Z"/></g></g></svg>