<svg xmlns="http://www.w3.org/2000/svg" viewBox="0 0 88.88 88.92"><defs><style>.cls-1{fill:#231f20;}</style></defs><title>plus.circle.black</title><g id="Layer_2" data-name="Layer 2"><g id="Layer_1-2" data-name="Layer 1"><path class="cls-1" d="M0,44.48A44.71,44.71,0,0,1,44.44,0,44.74,44.74,0,0,1,88.88,44.48,44.66,44.66,0,0,1,44.44,88.92,44.66,44.66,0,0,1,0,44.48Zm78.93,0A34.45,34.45,0,1,0,44.44,78.93,34.47,34.47,0,0,0,78.93,44.48ZM40.06,60V48.86H28.32c-2.68,0-4.63-1.7-4.63-4.34s1.87-4.37,4.63-4.37H40.06V28.49a4.37,4.37,0,1,1,8.72,0V40.15H60.56c2.76,0,4.59,1.7,4.59,4.37a4.24,4.24,0,0,1-4.59,4.34H48.78V60a4.37,4.37,0,1,1-8.72,0Z"/></g></g></svg>