<svg xmlns="http://www.w3.org/2000/svg" viewBox="0 0 96.85 92.65"><defs><style>.cls-1{fill:#fff;}</style></defs><title>star.white</title><g id="Layer_2" data-name="Layer 2"><g id="Layer_1-2" data-name="Layer 1"><path class="cls-1" d="M17.13,83.65l8.63-25.56-22-15.78C.72,40.15-.64,37.64.29,35s3.36-3.87,7.15-3.83l26.91.21L42.56,5.61C43.75,2,45.67,0,48.43,0s4.72,2,5.87,5.61l8.21,25.73,26.92-.21c3.78,0,6.25,1.23,7.14,3.87s-.42,5.15-3.49,7.31l-22,15.78,8.63,25.56c1.19,3.57.77,6.34-1.45,8s-5,1.19-8.08-1.1l-21.77-16-21.77,16c-3.11,2.29-5.83,2.81-8.08,1.1S15.94,87.22,17.13,83.65Zm10.51-4,18-14c2.09-1.62,3.53-1.62,5.62,0l18,14c.17.08.25.17.34.08a.6.6,0,0,0,0-.38l-7.7-21.43c-.89-2.43-.68-3.7,1.62-5.23l18.88-12.8c.17-.13.21-.22.21-.3s-.17-.13-.38-.13l-22.75.64c-2.6.09-3.79-.6-4.47-3.15L48.64,15.05c0-.21-.12-.29-.21-.29s-.17.08-.21.29l-6.3,21.86c-.72,2.55-1.91,3.24-4.5,3.15l-22.75-.64c-.22,0-.3,0-.34.13s0,.17.21.3L33.38,52.6c2.34,1.54,2.51,2.85,1.61,5.28L27.3,79.31c-.05.21-.05.26,0,.38S27.47,79.69,27.64,79.61Z"/></g></g></svg>