<svg xmlns="http://www.w3.org/2000/svg" viewBox="0 0 96.85 92.65"><defs><style>.cls-1{fill:#f06666;}</style></defs><title>star.fill.red</title><g id="Layer_2" data-name="Layer 2"><g id="Layer_1-2" data-name="Layer 1"><path class="cls-1" d="M17.13,83.65l8.63-25.56-22-15.78C.72,40.15-.64,37.64.29,35s3.36-3.87,7.15-3.83l26.91.21L42.56,5.61C43.75,2,45.67,0,48.43,0s4.72,2,5.87,5.61l8.21,25.73,26.92-.21c3.78,0,6.25,1.23,7.14,3.87s-.42,5.15-3.49,7.31l-22,15.78,8.63,25.56c1.19,3.57.77,6.34-1.45,8s-5,1.19-8.08-1.1l-21.77-16-21.77,16c-3.11,2.29-5.83,2.81-8.08,1.1S15.94,87.22,17.13,83.65Z"/></g></g></svg>