<svg xmlns="http://www.w3.org/2000/svg" viewBox="0 0 80.33 96.95"><defs><style>.cls-1{fill:#fff;}</style></defs><title>stars.white</title><g id="Layer_2" data-name="Layer 2"><g id="Layer_1-2" data-name="Layer 1"><path class="cls-1" d="M14.82,49.2c-1.34-10.89-1.72-11.26-12.9-13a1.93,1.93,0,0,1-.25-3.84c11.48-2,11.81-2.12,13.15-12.93a1.92,1.92,0,0,1,3.83-.09c1.42,11.19,1.72,11.48,13.11,13a1.93,1.93,0,0,1,0,3.84c-11.48,2.09-11.69,2.17-13.11,13.07A1.93,1.93,0,0,1,16.73,51,1.91,1.91,0,0,1,14.82,49.2ZM44,94.44C40.52,72,37.48,69.19,15.86,66.19a2.78,2.78,0,0,1,0-5.55c22-2.46,25.08-6,28.17-28.21a2.76,2.76,0,0,1,5.51,0C53,54.88,56.05,57.88,77.71,60.64a2.78,2.78,0,0,1,0,5.55c-22,2.5-25.09,6-28.17,28.25A2.8,2.8,0,0,1,46.78,97,2.86,2.86,0,0,1,44,94.44ZM35.89,19.82c-1.13-6.8-1.09-6.88-8.18-8.18a1.18,1.18,0,0,1-1.13-1.17,1.19,1.19,0,0,1,1.05-1.21c7.22-1.46,7.13-1.5,8.26-8.13A1.16,1.16,0,0,1,37.06,0a1.19,1.19,0,0,1,1.17,1.08c1.21,6.89,1.08,7,8.22,8.18a1.2,1.2,0,0,1,1.08,1.21,1.16,1.16,0,0,1-1,1.17c-7.18,1.42-7.14,1.46-8.26,8.22a1.19,1.19,0,0,1-1.17,1.05A1.15,1.15,0,0,1,35.89,19.82Z"/></g></g></svg>