<svg xmlns="http://www.w3.org/2000/svg" viewBox="0 0 54.56 100.85"><defs><style>.cls-1{fill:#fff;}</style></defs><title>t.thick.white</title><g id="Layer_2" data-name="Layer 2"><g id="Layer_1-2" data-name="Layer 1"><path class="cls-1" d="M3.42,67.54A353.89,353.89,0,0,1,20.16,33.37c-5.3-.68-8.37-2.56-9.74-4.61-2.39-3.58-.68-5.29,3.25-5.12A98.23,98.23,0,0,0,26,23.3c5.29-9.23,8.88-14.87,12.81-20.5C41.34-1,43.39-.79,45.27,2.46a15.44,15.44,0,0,1,1.88,7,30.16,30.16,0,0,1-2.74,11.79c5.3.68,8.2,3.41,9.4,5.46,1.71,3.08.51,5.13-3.59,4.61A51.32,51.32,0,0,0,39,31.84c-6.49,11.1-16.23,28-22.21,41a32.46,32.46,0,0,0-3.07,12.82c0,5.12,1.7,8.71,4.61,8.71,6.66,0,15.54-10.76,21.52-23.58,1.88-4.09,5.81-4.44,7,.18C47.66,74.54,47,77.1,45.1,81c-2.39,5.13-13.84,19.82-28.19,19.82C7.86,100.85,0,93.5,0,81.72,0,78,1,73.18,3.42,67.54Z"/></g></g></svg>