<svg xmlns="http://www.w3.org/2000/svg" viewBox="0 0 52.25 100.35"><defs><style>.cls-1{fill:#231f20;}</style></defs><title>t.thin.black</title><g id="Layer_2" data-name="Layer 2"><g id="Layer_1-2" data-name="Layer 1"><path class="cls-1" d="M10.17,26.88c-1.71-2.39-.69-3.58,1.88-3.41a96.52,96.52,0,0,0,14.18-.69c5.29-9.39,10.07-17.42,13-21.18,1.54-2.22,3.24-2.05,4.1,0C45.19,6.39,45.19,12,41.09,20.9c6.66-.17,9.22,2.91,10.59,5.13,1.19,2,.51,3.25-2,3.25-3.76-.52-9.06,0-13.33.68C29.64,41.4,19.9,58,13.41,72.32,7.78,84.79,9.66,95.38,16.83,95.73c7.69.34,17.42-11.79,23.74-24.6,1-2,2.91-2.39,3.59,0,.86,2.73,0,5.8-1.71,9.73-2.22,5-13.49,20-27.16,19.48C4,100-5,87.36,3.16,67.71c3.59-8.54,10.77-22.89,18.11-36.38C15.46,31.33,11.53,28.76,10.17,26.88Z"/></g></g></svg>